<?xml version="1.0" encoding="utf-8"?>
<!-- Generator: Adobe Illustrator 23.1.0, SVG Export Plug-In . SVG Version: 6.00 Build 0)  -->
<svg version="1.1" id="Layer_1" xmlns="http://www.w3.org/2000/svg" xmlns:xlink="http://www.w3.org/1999/xlink" x="0px" y="0px"
	 viewBox="0 0 225 225" style="enable-background:new 0 0 225 225;" xml:space="preserve">
<style type="text/css">
	.st0{fill:#466EE9;}
	.st1{opacity:0.52;fill:#466EE9;}
</style>
<g>
	<path class="st0" d="M141.2,70.8l-81.7,14V63.1c0-16.4,10.9-31.5,24.3-33.8l81.7-14V37C165.5,53.4,154.6,68.5,141.2,70.8z"/>
	<path class="st0" d="M141.2,131.7l-81.7,14V124c0-16.4,10.9-31.5,24.3-33.8l81.7-14v21.7C165.5,114.3,154.6,129.4,141.2,131.7z"/>
	<path class="st1" d="M85.1,206.1l-25.6,3.6V188c0-16.4,13.3-31.5,29.6-33.8l25.6-3.6l0,21.7C114.8,188.6,101.5,203.8,85.1,206.1z"
		/>
</g>
</svg>
